<svg style="display: none">

  <symbol id="academy-icon" xmlns="http://www.w3.org/2000/svg" viewBox="0 0 26.943 34.09" width="100%" height="100%">
    <path d="M13.6 0h-.1L0 1.4v24.7l13.5 8 13.4-8V1.4L13.6 0zM25 12.1L13.5 5.3h-.2L2 12.1v-9L13.5 2 25 3.1v9zM13.4 6.8L25 13.5l-4.5 2.6-7-4.2v1.4l5.8 3.5-.8.6-5-3v1.4l3.8 2.3-.8.5-3-1.8v1.4l1.8 1-1.8 1.2L2 13.6l11.4-6.8zM1.9 15l11.4 7v1l-7.9-4.7v1.4l8 4.8v1.1l-8-4.7v1.4l8 4.8 8.2-4.8V17l3.4-2v10l-11.5 6.9-11.6-7v-9.8z"></path>
  </symbol>

  <symbol id="burger-icon" xmlns="http://www.w3.org/2000/svg" viewBox="0 0 76.166 68.959" width="100%" height="100%">
    <path d="M71.914 46.042H4.252C1.914 46.042 0 47.955 0 50.294v3.454C0 56.086 1.914 58 4.252 58h.956v1.037c0 5.457 4.464 9.922 9.921 9.922h45.908c5.456 0 9.921-4.465 9.921-9.922V58h.956c2.339 0 4.252-1.914 4.252-4.252v-3.454c0-2.339-1.913-4.252-4.252-4.252zm-3.956 12.995c0 3.815-3.104 6.922-6.921 6.922H15.129c-3.816 0-6.921-3.104-6.921-6.922V58h59.75v1.037zm5.208-5.289c0 .679-.573 1.252-1.252 1.252H4.252C3.573 55 3 54.427 3 53.748v-3.454c0-.679.573-1.252 1.252-1.252h67.662c.679 0 1.252.573 1.252 1.252v3.454zM16.162 37.856l5.473 4 5.477-4 5.479 4 5.478-4 5.479 4 5.478-4 5.479 4 5.48-4 5.489 4 6.368-4.644-1.768-2.424-4.6 3.356-5.489-4-5.48 4-5.479-4.001-5.478 4.001-5.479-4.001-5.478 4.001-5.479-4.001-5.476 4.001-5.473-4.002-5.477 4.002-4.593-3.355-1.77 2.422 6.363 4.645zM70.888 31.094c.041-.61.055-2.616.037-3C70.242 12.476 55.804 0 38.083 0 20.363 0 5.924 12.476 5.241 28.094c-.017.384-.004 2.389.039 3h65.608zM38.083 3c16.031 0 29.15 11.154 29.842 25.094H8.241C8.933 14.154 22.051 3 38.083 3z"/><circle cx="38.083" cy="15.042" r="2"/><circle cx="30.083" cy="10.083" r="2"/><circle cx="46.083" cy="10.083" r="2"/>
  </symbol>

  <symbol id="house-icon" xmlns="http://www.w3.org/2000/svg" viewBox="0 0 74.695 72.346" width="100%" height="100%">
    <path d="M29.5 65.3h16V41.4h-16v24zm13-2.9h-10v-18h10v18z">
    </path>
    <path d="M72.6 39.4l2.1-2-10-10V.4H51v13.2L37.3 0 0 37.4l2 2 8-7.8v37.8H6v3h63.8v-3h-5V31.6l7.8 7.8zM54 3.4h8v21.1l-8-8v-13zm8 66H13V28.7L37.2 4.2 62 28.7v40.7z"></path>
    <path d="M29.8 27.2a7.8 7.8 0 1 0 15.5 0 7.8 7.8 0 0 0-15.5 0zm7.7-5a5 5 0 1 1 0 10 5 5 0 0 1 0-10zM16.9 41.4h3v3.9h-3zm5.9 0h3v3.9h-3zm-5.9 6h3v3.9h-3zm5.9 0h3v3.9h-3zm26-6h3v3.9h-3zm6 0h3v3.9h-3zm-6 6h3v3.9h-3zm6 0h3v3.9h-3z"></path>
  </symbol>

  <symbol id="gift-icon" xmlns="http://www.w3.org/2000/svg" viewBox="0 0 63 75.084" width="100%" height="100%">
    <path d="M60.165 22.23H35.758c13.604-6.815 14.688-11.115 14.188-13.52-1.145-3.916-5.604-6.938-9.848-5.341-5.484 2.063-7.029 10.262-8.514 16.19-1.894-5.998-3.726-13.649-8.011-17.525C22.331.909 20.524-.203 17.897.031c-3.965.352-9.652 5.317-7.344 10.849 2.217 5.313 9.539 8.67 14.354 11.35H2.834C1.275 22.23 0 23.506 0 25.065V36.25c0 1.559 1.275 2.834 2.835 2.834h.27v35.999h56.958V39.084h.104c1.561 0 2.835-1.275 2.835-2.834V25.065c-.002-1.559-1.277-2.835-2.837-2.835zM41.766 5.873c2.07-.306 4.907 1.283 5.176 3.171.386 2.723-3.349 5.192-5.008 6.343-2.484 1.723-4.853 2.611-7.178 4.006.872-3.645 2.512-12.854 7.01-13.52zm-22.534 9.848c-2.19-1.467-6.444-4.378-6.342-7.678.11-3.552 5.655-6.491 8.68-3.839 3.797 3.331 5.625 10.972 7.01 16.357-3.199-1.519-6.23-2.753-9.348-4.84zm5.882 56.426H6.042V39.084h19.072v33.063zm0-36.063H3V25.23h22.114v10.854zm10.001 36.062h-7.063V25.23h7.063v46.916zm22.01.001H38.053V39.084h19.072v33.063zM60 36.084H38.053V25.23H60v10.854z"/>
  </symbol>

  <symbol id="fb-icon" xmlns="http://www.w3.org/2000/svg" width="100%" height="100%">
    <path d="M25.5 16.4h2.4V13H25c-3.1.2-4.3 2.4-3.9 6.1h-1.9v3.5h2V32H25v-9.4h2.9v-3.5h-3c0-1 0-2.4.6-2.7z"></path>
  </symbol>

  <symbol id="yt-icon" xmlns="http://www.w3.org/2000/svg" width="100%" height="100%">
    <path d="M30.6 17H16.3a2.8 2.8 0 0 0-2.8 2.8v8.4c0 1.5 1.3 2.8 2.8 2.8h14.3c1.6 0 2.9-1.3 2.9-2.8v-8.4c0-1.5-1.3-2.8-3-2.8zm-10 10.4v-6.8l6.6 3.4-6.7 3.4z"></path>
  </symbol>

  <symbol id="tw-icon" xmlns="http://www.w3.org/2000/svg" width="100%" height="100%">
    <path fill-rule="evenodd" clip-rule="evenodd" d="M26.3 16.2c1.7-.5 3 .2 3.7 1.1l2-.7c0 .9-.5 1.5-.8 1.7.7.2 1.3-.4 1.3-.4-.2 1-1 1.7-1.6 2-.3 6.5-3.3 10.9-10.4 10.8H20c-.4 0-4.2-.5-5-1.9 2.3.2 4-.4 4.8-1.1-1-.3-2.7-.5-3-3 .2.3.5.3 1.2.3-1.2-.9-2.6-1.6-2.5-3.8a2 2 0 0 0 1.3.5c-.7-.3-2-3.3-.9-4.9 1.9 1.9 3.9 3.6 7.4 3.7.2-2.2 1.2-3.7 3-4.3z"></path>
  </symbol>

  <symbol id="video-full" xmlns="http://www.w3.org/2000/svg" viewBox="0 0 65 65" width="100%" height="100%">
    <path d="M23 23.4v6h3v-3h3v-3h-3zm3 14h-3v6h6v-3h-3zm14-14h-3v3h3v3h3v-6zm0 17h-3v3h6v-6h-3z">
    </path>
  </symbol>

  <symbol id="video-replay" xmlns="http://www.w3.org/2000/svg" viewBox="0 0 65 65" width="100%" height="100%">
    <path d="M32.4 26.2v-4l-5 5 5 5v-4a6 6 0 1 1-6 6h-2a8 8 0 1 0 8-8z"></path>
  </symbol>

  <symbol id="video-sub" xmlns="http://www.w3.org/2000/svg" viewBox="0 0 65 65" width="100%" height="100%">
    <path d="M45.7 23.5h-26a3 3 0 0 0-3 3v14a3 3 0 0 0 3 3h26a3 3 0 0 0 3-3v-14a3 3 0 0 0-3-3zM31.1 39.4l-1.7.1a6 6 0 0 1-2-.3c-.6-.2-1.1-.6-1.6-1s-.8-1.1-1.1-2c-.3-.7-.4-1.6-.4-2.7s.1-2 .4-2.9c.3-.7.7-1.3 1.2-1.8s1.1-.8 1.7-1c.6-.2 1.3-.3 1.9-.3a9 9 0 0 1 2.8.4l-.5 2c-.2-.2-.5-.3-.9-.3l-1.2-.1c-1 0-1.7.3-2.2 1-.6.6-.9 1.6-.9 3l.2 1.6.6 1.3 1 .8c.4.2 1 .3 1.4.3l1.3-.1.9-.4.5 1.8c-.4.3-.9.4-1.4.6zm8.7 0l-1.7.1a6 6 0 0 1-2-.3c-.6-.2-1.1-.6-1.6-1s-.9-1.1-1.1-2c-.3-.7-.5-1.6-.5-2.7s.2-2 .5-2.9c.3-.7.7-1.3 1.2-1.8s1.1-.8 1.7-1c.6-.3 1.4-.3 1.9-.3a9 9 0 0 1 2.8.4l-.5 2c-.2-.2-.5-.3-.9-.3l-1.2-.1c-1 0-1.7.3-2.2 1-.6.6-.9 1.6-.9 3l.2 1.6.6 1.3 1 .8c.4.2 1 .3 1.4.3l1.3-.1.9-.4.4 1.8c-.3.3-.8.4-1.3.6z"></path>
  </symbol>

</svg>
